<svg version="1.1" xmlns="http://www.w3.org/2000/svg" style="display: block;" viewBox="0 0 2048 1806" width="1294" height="1141" preserveAspectRatio="none">
<defs>
	<linearGradient id="Gradient1" gradientUnits="userSpaceOnUse" x1="1683.01" y1="996.862" x2="1728.41" y2="837.234">
		<stop class="stop0" offset="0" stop-opacity="1" stop-color="rgb(31,51,63)"/>
		<stop class="stop1" offset="1" stop-opacity="1" stop-color="rgb(142,156,157)"/>
	</linearGradient>
	<linearGradient id="Gradient2" gradientUnits="userSpaceOnUse" x1="1389.61" y1="753.434" x2="1365.84" y2="810.517">
		<stop class="stop0" offset="0" stop-opacity="1" stop-color="rgb(14,26,40)"/>
		<stop class="stop1" offset="1" stop-opacity="1" stop-color="rgb(56,65,72)"/>
	</linearGradient>
	<linearGradient id="Gradient3" gradientUnits="userSpaceOnUse" x1="1610.05" y1="783.128" x2="1296.6" y2="778.759">
		<stop class="stop0" offset="0" stop-opacity="1" stop-color="rgb(69,26,28)"/>
		<stop class="stop1" offset="1" stop-opacity="1" stop-color="rgb(120,55,38)"/>
	</linearGradient>
	<linearGradient id="Gradient4" gradientUnits="userSpaceOnUse" x1="1578.14" y1="975.41" x2="1494.23" y2="816.057">
		<stop class="stop0" offset="0" stop-opacity="1" stop-color="rgb(117,134,138)"/>
		<stop class="stop1" offset="1" stop-opacity="1" stop-color="rgb(160,173,175)"/>
	</linearGradient>
</defs>
<path transform="translate(0,0)" fill="rgb(56,69,74)" d="M 557.755 64.3601 C 564.008 67.305 680.604 223.828 692.209 238.967 C 708.894 260.618 725.789 282.107 742.891 303.43 C 752.533 315.622 770.283 339.614 780.447 348.983 C 757.545 290.621 748.006 234.443 783.318 177.798 C 796.094 196.591 812.544 228.239 824.69 248.753 C 856.578 302.61 886.38 357.51 922.218 409.068 C 933.932 425.921 952.043 453.475 965.603 468.062 C 965.083 452.086 967.985 429.136 968.898 412.468 C 1009.3 450.871 1036.37 497.725 1087.27 525.718 C 1137.85 553.536 1167.32 541.401 1219.63 532.082 C 1256.96 525.434 1299.83 520.86 1337.97 522.405 C 1428.7 526.082 1507.33 553.879 1587.76 594.433 C 1586.33 586.091 1585.95 582.726 1585.86 574.307 C 1635.98 613.403 1693.62 660.185 1693.72 729.71 C 1723.7 744.004 1774.96 786.293 1795.83 811.216 C 1883.38 915.748 1864.35 1059.25 1762.49 1145.75 C 1759.29 1143.22 1759.61 1131.23 1759.23 1126.28 C 1756.82 1095.89 1750.59 1065.92 1740.7 1037.08 C 1711.67 1036.7 1681.99 1027.94 1654.23 1020.57 C 1648.14 1018.95 1624.59 1011.94 1619.91 1012.52 C 1542.61 1021.54 1462.47 1087.35 1449.35 1165.91 C 1429.47 1284.98 1501.2 1396.46 1544.36 1500.48 C 1527.78 1493.7 1511.11 1487.16 1494.34 1480.86 C 1506.74 1559.5 1503.79 1660.73 1503.78 1741.76 C 1298.8 1611.64 1085.84 1517.54 843.452 1486.01 C 835.667 1485 786.018 1479.45 783.559 1477.14 C 787.016 1471.34 794.952 1461.64 799.36 1455.88 C 807.228 1445.6 814.925 1435.19 822.447 1424.65 C 855.033 1379.33 878.23 1327.94 890.674 1273.52 C 875.75 1281.61 860.632 1289.21 845.705 1297.27 C 846.484 1289.23 847.389 1282.84 848.751 1274.87 C 826.437 1296.62 803.819 1308.99 774.975 1320.08 C 753.006 1328.53 749.34 1328.96 726.141 1329.9 C 752.184 1283.56 782.322 1237.12 810.552 1191.78 L 809.965 1173.74 C 793.57 1197.15 777.554 1220.82 761.925 1244.75 C 737.183 1283 720.765 1312.5 686.363 1343.3 C 653.797 1372.46 622.316 1391.95 582.084 1409.29 C 576.142 1411.85 565.042 1417.39 559.127 1417.09 C 550.311 1412.23 560.55 1393.72 563.706 1386.28 C 593.027 1317.82 639.219 1254.63 685.399 1196.79 C 688.54 1192.86 711.703 1163.54 711.453 1161.04 C 706.839 1163.36 662.27 1209.35 655.117 1216.56 C 591.037 1281.08 502.84 1328.32 409.636 1318.41 C 398.492 1317.23 387.676 1314.31 376.122 1313.36 C 390.136 1298.97 404.454 1284.89 419.067 1271.11 C 424.99 1265.58 464.726 1230.38 464.791 1226.78 C 459.116 1225.15 414.102 1235.45 402.872 1236.78 C 351.414 1242.88 316.624 1231.17 268.302 1216.54 C 278.561 1208.2 297.358 1196.33 308.821 1188.85 C 335.339 1171.22 362.379 1154.4 389.906 1138.39 C 482.217 1083.91 566.67 1042.48 662.144 994.312 L 818.406 913.712 C 797.127 910.843 779.767 908.123 759.235 902.11 C 753.506 903.294 742.879 907.153 736.988 909.04 C 724.077 913.068 711.206 917.22 698.376 921.497 C 644.872 939.262 588.436 958.362 533.376 970.722 C 464.102 986.274 375.367 970.776 322.304 920.004 C 328.192 918.658 334.02 917.688 339.955 916.633 C 384.289 908.757 429.485 894.724 473.523 886.605 C 385.728 885.46 268.246 853.332 233.27 763.138 C 263.232 762.419 300.053 764.511 330.412 765.716 L 467.145 770.64 C 485.019 771.278 503.689 770.601 521.692 771.031 C 594.049 773.274 666.459 773.201 738.811 770.811 C 742.083 770.672 747.351 770.813 749.588 768.382 C 725.34 754.743 713.672 744.508 694.713 723.867 C 689.261 717.931 684.546 712.194 678.697 706.577 C 651.799 700.461 625.02 693.832 598.375 686.695 C 557.202 675.974 519.75 665.982 481.115 647.263 C 424.435 619.803 375.146 576.334 346.746 519.561 C 338.943 503.964 332.775 485.994 327.088 469.537 C 349.574 477.058 374.372 487.167 396.607 495.771 C 434.683 510.761 472.89 525.418 511.222 539.74 C 498.704 529.962 485.847 522.4 472.326 511.376 C 416.347 465.735 379.274 407.31 362.828 336.978 C 373.877 344.326 409.564 363.7 422.329 370.161 C 418.576 364.276 413.792 358.549 409.646 352.916 C 384.17 318.3 366.135 276.924 365.617 233.409 C 365.486 222.386 366.829 211.711 367.199 200.657 C 394.848 220.4 425.963 246.974 453.349 268.111 L 632.264 408.653 C 666.479 434.743 701.036 460.379 735.928 485.555 C 724.801 458.254 719.749 443.812 718.148 413.774 C 709.819 404.465 698.11 394.723 688.736 386.162 C 602.294 307.221 510.282 189.554 557.755 64.3601 z"/>
<path transform="translate(0,0)" fill="rgb(1,4,20)" d="M 567.124 109.537 C 571.889 113.985 583.42 130.04 587.789 135.83 L 633.968 197.498 C 667.696 242.52 702.159 286.987 737.344 330.879 C 773.752 376.446 809.822 420.589 851.209 461.899 C 863.95 474.615 877.353 488.944 891.559 499.838 C 898.814 505.401 912.63 506.564 921.585 510.986 C 931.692 515.977 938.564 522.913 948.623 527.713 C 941.817 519.604 930.982 509.301 923.349 500.643 C 899.816 473.762 876.831 446.405 854.409 418.591 C 843.853 405.729 831.773 393.018 822.288 379.478 C 788.347 331.028 776.714 280.943 785.591 222.897 C 797.57 245.323 811.175 267.968 823.8 290.079 C 859.633 352.832 897.277 414.075 940.798 471.867 C 958.811 495.787 977.414 521.015 1001.03 540.005 C 1008.84 546.29 1026.68 552.36 1036.44 556.054 C 1034.08 554.262 1031.76 552.426 1029.47 550.546 C 999.293 525.569 990.851 501.395 987.536 464.207 C 1029.7 515.907 1096.06 576.669 1168.63 564.806 C 1213.66 557.445 1257.62 546.084 1303.68 544.922 C 1412.36 542.181 1528.15 576.893 1617.01 639.662 C 1615.92 634.648 1614.04 629.15 1612.49 624.202 C 1616.93 627.356 1624.09 633.409 1627.61 637.393 C 1659.35 673.285 1672.71 695.808 1672.13 743.171 C 1695.54 754.063 1718.19 771.577 1738.5 787.052 C 1787.46 824.362 1821.15 875.173 1827.54 937.449 C 1834.2 1002.36 1815.88 1050.85 1776.25 1100.43 C 1775.96 1066.09 1769.24 1048.39 1757.69 1016.98 C 1709.94 1014.82 1664.48 1001.2 1618.45 987.779 C 1588.92 993.775 1560.52 1004.36 1534.27 1019.15 C 1377.22 1107.59 1416.71 1277.89 1480.98 1411.52 C 1489.62 1429.48 1497.21 1448.54 1507.13 1465.84 C 1493.66 1456.63 1480.65 1448.51 1467.29 1438.87 C 1483.27 1537.03 1482.49 1605.5 1482.27 1702.86 C 1336.31 1608.81 1176.24 1538.74 1008.12 1495.32 C 950.017 1480.38 882.165 1466.94 822.22 1461.83 C 882.932 1385.58 908.11 1315.99 923.787 1221.25 C 907.445 1235.6 894.054 1244.54 875.516 1255.43 C 893.681 1219.69 915.421 1177 928.433 1138.83 C 931.768 1129.05 933.793 1107.88 934.694 1096.75 C 911.48 1141.57 862.995 1232.94 826.583 1265.34 C 809.374 1280.66 790.114 1290.32 768.827 1298.54 C 779.817 1279.53 794.066 1258.52 806.032 1239.99 C 829.997 1202.66 854.164 1165.46 878.532 1128.39 C 890.45 1110.05 918.953 1066.39 927.631 1047.34 C 897.211 1082.68 866.773 1115.51 835.619 1150.08 C 843.229 1123.49 858.715 1081 870.048 1056.12 C 848.673 1078.53 824.037 1114.04 806.227 1139.83 C 785.164 1170.04 764.599 1200.6 744.54 1231.48 C 724.292 1262.76 708.689 1291.71 681.849 1318.41 C 652.01 1348.09 624.688 1364.3 588.166 1383.89 C 622.876 1311.08 655.968 1267.2 705.712 1204.64 C 732.049 1171.17 759.519 1138.6 788.075 1107 C 808.734 1084.37 829.513 1061.85 850.412 1039.44 C 861.449 1027.71 877.45 1012.12 886.749 999.736 C 888.885 996.891 899.376 975.002 902.258 969.629 C 887.29 984.531 864.125 1000.88 846.982 1014.22 C 818.818 1035.92 791.331 1058.49 764.559 1081.89 C 735.433 1107.66 706.973 1134.17 679.208 1161.4 C 599.634 1240.49 542.845 1297.8 422.406 1298.01 C 479.892 1241.42 541.269 1188.91 606.085 1140.88 C 648.961 1109.52 695.133 1080.55 738.615 1049.65 C 795.092 1009.33 850.667 967.75 905.298 924.955 C 884.893 934.171 842.583 958.218 821.766 969.74 C 767.706 999.663 697.975 1034.68 650.685 1073.27 C 617.016 1101.07 583.12 1134.29 547.434 1158.91 C 527.539 1172.36 506.356 1183.8 484.198 1193.06 C 424.473 1218.01 379.437 1221.27 316.278 1209.7 C 337.609 1196.92 358.868 1182 380.908 1168.75 C 443.867 1130.23 508.531 1094.57 574.705 1061.88 C 654.571 1022.39 734.03 982.092 813.071 940.982 C 839.49 927.474 865.734 913.627 891.797 899.445 C 906.21 891.713 927.507 880.998 940.273 871.692 C 882.389 889.989 867.286 892.46 805.674 890.819 C 846.871 870.345 882.384 857.372 919.648 827.768 C 843.006 851.525 766.614 876.084 690.486 901.442 C 664.034 910.104 637.486 918.469 610.846 926.534 C 524.444 953.3 462.812 971.173 376.144 930.718 C 534.093 892.593 695.594 869.254 850.913 819.758 C 862.593 816.036 874.369 813.567 886.145 809.495 C 863.182 811.346 831.841 815.813 808.271 818.57 C 761.766 823.662 715.357 829.596 669.067 836.37 C 634.163 841.862 599.231 847.169 564.271 852.291 C 518.176 859.208 476.959 867.381 430.128 861.61 C 373.313 854.608 305.796 830.623 269.392 784.815 C 282.838 786.513 306.31 786.628 320.455 787.035 L 412.1 789.611 C 481.779 791.821 557.443 794.193 627.139 793.76 C 711.559 793.371 795.927 789.482 880.025 782.106 C 820.381 774.283 761.843 761.255 717.276 717.147 C 740.272 722.008 768.089 725.61 791.51 729.075 L 917.378 747.837 C 891.921 729.817 856.012 724.303 825.731 717.768 C 793.773 711.006 761.867 703.999 730.016 696.748 C 688.032 687.087 646.212 676.72 604.576 665.653 C 577.528 658.509 544.701 650.02 518.805 640.22 C 456.607 616.68 393.031 568.73 365 507.101 C 379.574 512.182 394.333 518.005 408.688 523.69 C 556.386 582.186 703.648 642.833 856.915 685.529 C 870.702 689.37 884.838 693.796 898.749 696.872 C 831.2 661.785 764.233 631.397 694.438 600.936 C 581.25 551.537 449.217 506.189 399.03 381.162 C 406.507 384.544 423.8 395.402 431.66 399.999 L 493.39 435.754 L 728.981 573.744 C 756.67 589.597 815.64 624.27 844.903 631.785 L 831.171 621.881 C 850.805 624.562 873.567 626.328 892.663 630.337 C 819.268 594.234 750.054 551.882 678.759 512.051 C 652.54 497.403 638.066 492.884 609.383 486.285 C 604.252 485.104 581.607 469.679 575.573 465.612 C 507.806 419.93 433.235 370.644 399.815 292.678 C 392.817 276.344 389.931 259.635 387.362 242.323 C 437.625 282.771 488.146 322.896 538.923 362.696 C 634.87 438.587 721.467 506.775 828.4 566.823 C 800.644 540.521 770.566 509.552 754.749 474.275 C 749.749 463.123 745.897 448.973 742.411 437.117 C 753.161 447.39 765.483 456.634 777.239 465.798 C 803.704 486.621 831.094 506.239 859.327 524.593 C 874.486 534.594 893.572 547.544 909.207 555.79 C 896.487 543.183 881.828 531.568 869.204 518.96 C 754.497 404.393 557.518 294.206 567.124 109.537 z"/>
<path transform="translate(0,0)" fill="rgb(56,69,74)" d="M 929.036 661.66 C 939.213 664.523 952.557 670.039 962.807 673.842 C 979.538 679.988 996.375 685.843 1013.31 691.404 C 1020.03 693.585 1052.89 702.2 1056.68 704.458 C 1057.57 707.699 1057.32 707.656 1060.62 709.268 C 1099.86 728.453 1140.77 736.653 1184.34 734.185 C 1193.85 733.646 1209.71 730.746 1217.64 731.134 C 1236.21 727.37 1255.59 721.45 1272.57 712.996 C 1301.22 698.736 1321.98 683.137 1354.55 677.09 C 1344.89 684.166 1306.13 710.323 1306.18 722.74 C 1300.5 727.257 1286.3 734.845 1279.28 739.196 C 1286.36 740.799 1290.07 741.518 1297.26 742.17 C 1292.44 764.131 1296.59 785.365 1308.78 804.103 C 1325.3 829.511 1345.73 837.461 1373.74 844.16 C 1409.52 846.604 1433.46 840.946 1462.22 818.238 C 1455.62 831.52 1440.27 852.919 1427.7 860.234 C 1418.58 861.801 1374.32 869.065 1366.93 867.712 C 1342.95 871.268 1318.77 877.507 1322.63 909.33 C 1323.67 917.902 1329.69 925.618 1336.84 930.192 C 1361.47 944.592 1399.73 937.686 1427.01 936.179 C 1444.07 935.18 1461.15 934.854 1478.23 935.2 C 1483.93 935.335 1499.2 935.778 1503.91 937.385 C 1497.37 940.481 1471.14 953.709 1467.02 957.868 C 1450.04 957.893 1436.92 962.493 1420.76 966.545 C 1333.66 988.381 1244.54 1041.02 1207.12 1126.53 C 1230.43 1101.35 1242.64 1090.12 1269.34 1068.73 C 1293.57 1040.06 1380.25 1003.49 1416.94 993.799 C 1442.45 987.246 1468.49 982.965 1494.76 981.009 C 1512.03 979.497 1529.34 978.71 1546.67 978.648 C 1484.55 1007.29 1429.51 1046.67 1406.41 1114.82 C 1405.12 1118.62 1398.51 1140.76 1397.18 1142.76 C 1394.48 1158.13 1391.05 1175.64 1390.44 1191.09 C 1387.32 1270.03 1420.54 1343.82 1432.92 1421 C 1444.75 1494.68 1447.64 1564.53 1447 1638.46 L 1424.8 1625.71 C 1413.42 1621.51 1376.51 1599.84 1363.15 1592.86 C 1333.44 1577.33 1302.92 1564.99 1273.64 1550.16 C 1151.62 1498.25 1016.03 1455.52 884.389 1436.24 C 893.225 1420.11 901.926 1405.17 910.026 1388.46 C 934.405 1338.19 949 1285.61 957.715 1230.49 C 962.398 1199.52 965.754 1168.37 967.774 1137.11 C 974.668 1030.94 975.627 986.301 1028.86 890.84 C 984.635 915.322 960.923 937.803 925.484 972.078 C 934.813 951.394 949.092 929.08 960.872 909.663 C 979.877 878.335 1005.35 850.471 1030.28 823.776 C 1000.49 823.951 968.72 824.068 939.18 827.256 C 974.815 804.919 999.027 793.925 1037.79 777.774 C 991.046 756.699 975.706 753.012 932.341 721.976 C 967.619 729.835 1003.64 733.868 1039.78 734.005 C 1032.31 728.654 1016.79 721.81 1007.64 715.942 C 980.956 698.822 954.041 681.175 929.036 661.66 z"/>
<path transform="translate(0,0)" fill="rgb(25,38,52)" d="M 929.036 661.66 C 939.213 664.523 952.557 670.039 962.807 673.842 C 979.538 679.988 996.375 685.843 1013.31 691.404 C 1020.03 693.585 1052.89 702.2 1056.68 704.458 C 1057.57 707.699 1057.32 707.656 1060.62 709.268 C 1099.86 728.453 1140.77 736.653 1184.34 734.185 C 1193.85 733.646 1209.71 730.746 1217.64 731.134 C 1236.21 727.37 1255.59 721.45 1272.57 712.996 C 1301.22 698.736 1321.98 683.137 1354.55 677.09 C 1344.89 684.166 1306.13 710.323 1306.18 722.74 C 1300.5 727.257 1286.3 734.845 1279.28 739.196 C 1286.36 740.799 1290.07 741.518 1297.26 742.17 C 1292.44 764.131 1296.59 785.365 1308.78 804.103 C 1325.3 829.511 1345.73 837.461 1373.74 844.16 C 1409.52 846.604 1433.46 840.946 1462.22 818.238 C 1455.62 831.52 1440.27 852.919 1427.7 860.234 C 1418.58 861.801 1374.32 869.065 1366.93 867.712 C 1363 865.758 1355.07 864.198 1350.68 863.357 C 1317.02 856.885 1288.08 836.151 1269.14 807.511 C 1238.99 761.909 1191.68 729.77 1135.95 748.948 C 1082.37 767.39 1062.79 820.734 1081.75 873.016 C 1091.51 899.921 1111.65 921.781 1137.68 933.689 C 1184.39 955.267 1246.16 943.107 1290.08 920.256 C 1212.46 993.936 1061.27 1001.77 1064.42 862.089 C 1064.73 848.275 1066.88 835.37 1069.2 821.796 C 1018.6 906.256 1023.85 1023.72 1045.35 1115.83 C 1070.5 1223.57 1128.01 1305.5 1198.91 1387.96 C 1233.3 1427.96 1264.94 1497.86 1273.64 1550.16 C 1151.62 1498.25 1016.03 1455.52 884.389 1436.24 C 893.225 1420.11 901.926 1405.17 910.026 1388.46 C 934.405 1338.19 949 1285.61 957.715 1230.49 C 962.398 1199.52 965.754 1168.37 967.774 1137.11 C 974.668 1030.94 975.627 986.301 1028.86 890.84 C 984.635 915.322 960.923 937.803 925.484 972.078 C 934.813 951.394 949.092 929.08 960.872 909.663 C 979.877 878.335 1005.35 850.471 1030.28 823.776 C 1000.49 823.951 968.72 824.068 939.18 827.256 C 974.815 804.919 999.027 793.925 1037.79 777.774 C 991.046 756.699 975.706 753.012 932.341 721.976 C 967.619 729.835 1003.64 733.868 1039.78 734.005 C 1032.31 728.654 1016.79 721.81 1007.64 715.942 C 980.956 698.822 954.041 681.175 929.036 661.66 z"/>
<path transform="translate(0,0)" fill="rgb(83,35,31)" d="M 1217.64 731.134 C 1236.21 727.37 1255.59 721.45 1272.57 712.996 C 1301.22 698.736 1321.98 683.137 1354.55 677.09 C 1344.89 684.166 1306.13 710.323 1306.18 722.74 C 1300.5 727.257 1286.3 734.845 1279.28 739.196 C 1286.36 740.799 1290.07 741.518 1297.26 742.17 C 1292.44 764.131 1296.59 785.365 1308.78 804.103 C 1325.3 829.511 1345.73 837.461 1373.74 844.16 C 1357.44 847.202 1338.2 839.101 1324.49 830.954 C 1298.38 815.44 1289.1 786.508 1268.12 765.437 C 1251.59 748.845 1237.04 742.468 1217.64 731.134 z"/>
<path transform="translate(0,0)" fill="rgb(25,38,52)" d="M 1269.34 1068.73 C 1293.57 1040.06 1380.25 1003.49 1416.94 993.799 C 1442.45 987.246 1468.49 982.965 1494.76 981.009 C 1512.03 979.497 1529.34 978.71 1546.67 978.648 C 1484.55 1007.29 1429.51 1046.67 1406.41 1114.82 C 1405.12 1118.62 1398.51 1140.76 1397.18 1142.76 C 1391.66 1149.42 1390.9 1159.28 1388.84 1167.46 C 1380.93 1199.02 1378.06 1234.57 1381.85 1267.07 C 1384.79 1292.26 1390.16 1329.88 1396.72 1354.67 C 1389.15 1352.09 1386.24 1341.12 1379.54 1334.17 L 1378.73 1336.99 C 1376.52 1335.04 1372.09 1323.4 1369.75 1319.77 C 1338.9 1271.88 1321.63 1216.42 1319.68 1159.5 C 1299.38 1194.14 1294.22 1213.27 1289.32 1252.11 C 1274.77 1201.12 1277.93 1137.66 1296.8 1088.22 C 1302.6 1073.02 1311.77 1057.86 1320.86 1044.35 C 1299.88 1052.65 1289.01 1059.07 1269.34 1068.73 z"/>
<path transform="translate(0,0)" fill="rgb(254,254,254)" d="M 1396.72 1354.67 C 1390.16 1329.88 1384.79 1292.26 1381.85 1267.07 C 1378.06 1234.57 1380.93 1199.02 1388.84 1167.46 C 1390.9 1159.28 1391.66 1149.42 1397.18 1142.76 C 1394.48 1158.13 1391.05 1175.64 1390.44 1191.09 C 1387.32 1270.03 1420.54 1343.82 1432.92 1421 C 1444.75 1494.68 1447.64 1564.53 1447 1638.46 L 1424.8 1625.71 C 1428.38 1540.68 1416.55 1436.97 1396.72 1354.67 z"/>
<path transform="translate(0,0)" fill="rgb(1,4,20)" d="M 1354.55 677.09 C 1378.26 671.519 1393.39 670.942 1417.13 677.533 C 1441.55 684.03 1461.29 694.126 1481.06 709.98 C 1520.22 741.393 1554.7 795.55 1613.91 782.862 C 1622.49 780.231 1627.77 777.651 1635.26 772.914 C 1639.06 768.945 1644.08 763.398 1648.17 759.997 C 1664.96 768.521 1681.92 777.459 1695.68 790.618 C 1697.56 792.781 1706.3 800.634 1709.08 800.008 C 1705.7 806.395 1702.3 813.01 1698.76 819.284 C 1696.91 822.117 1692.83 828.048 1691.37 830.783 C 1673.41 856.909 1654.38 874.613 1624.56 886.449 C 1620.27 888.15 1609.1 892.932 1604.77 892.612 C 1599.58 895.365 1594.95 898.831 1590.15 902.214 C 1525.01 892.552 1462.18 886.719 1396.35 894.207 C 1386.3 895.35 1366.19 895.966 1358.51 902.628 L 1358.8 904.204 C 1368.23 909.384 1398.88 906.449 1410.99 906.088 C 1431.21 905.549 1451.45 905.638 1471.66 906.355 C 1514.02 908.332 1556.18 913.387 1597.81 921.48 C 1601.04 930.082 1616.61 953.45 1617.99 959.386 C 1561.72 950.764 1522.56 953.25 1467.02 957.868 C 1471.14 953.709 1497.37 940.481 1503.91 937.385 C 1499.2 935.778 1483.93 935.335 1478.23 935.2 C 1461.15 934.854 1444.07 935.18 1427.01 936.179 C 1399.73 937.686 1361.47 944.592 1336.84 930.192 C 1329.69 925.618 1323.67 917.902 1322.63 909.33 C 1318.77 877.507 1342.95 871.268 1366.93 867.712 C 1374.32 869.065 1418.58 861.801 1427.7 860.234 C 1440.27 852.919 1455.62 831.52 1462.22 818.238 C 1433.46 840.946 1409.52 846.604 1373.74 844.16 C 1345.73 837.461 1325.3 829.511 1308.78 804.103 C 1296.59 785.365 1292.44 764.131 1297.26 742.17 C 1290.07 741.518 1286.36 740.799 1279.28 739.196 C 1286.3 734.845 1300.5 727.257 1306.18 722.74 C 1306.13 710.323 1344.89 684.166 1354.55 677.09 z"/>
<path transform="translate(0,0)" fill="url(#Gradient4)" d="M 1648.17 759.997 C 1664.96 768.521 1681.92 777.459 1695.68 790.618 C 1697.56 792.781 1706.3 800.634 1709.08 800.008 C 1705.7 806.395 1702.3 813.01 1698.76 819.284 C 1696.91 822.117 1692.83 828.048 1691.37 830.783 C 1673.41 856.909 1654.38 874.613 1624.56 886.449 C 1620.27 888.15 1609.1 892.932 1604.77 892.612 C 1599.58 895.365 1594.95 898.831 1590.15 902.214 C 1525.01 892.552 1462.18 886.719 1396.35 894.207 C 1386.3 895.35 1366.19 895.966 1358.51 902.628 L 1358.8 904.204 C 1368.23 909.384 1398.88 906.449 1410.99 906.088 C 1431.21 905.549 1451.45 905.638 1471.66 906.355 C 1514.02 908.332 1556.18 913.387 1597.81 921.48 C 1601.04 930.082 1616.61 953.45 1617.99 959.386 C 1561.72 950.764 1522.56 953.25 1467.02 957.868 C 1471.14 953.709 1497.37 940.481 1503.91 937.385 C 1499.2 935.778 1483.93 935.335 1478.23 935.2 C 1461.15 934.854 1444.07 935.18 1427.01 936.179 C 1399.73 937.686 1361.47 944.592 1336.84 930.192 C 1329.69 925.618 1323.67 917.902 1322.63 909.33 C 1318.77 877.507 1342.95 871.268 1366.93 867.712 C 1374.32 869.065 1418.58 861.801 1427.7 860.234 C 1420.16 867.167 1411.4 873.739 1404.72 880.018 C 1413.06 879.504 1422.37 878.257 1430.78 877.152 C 1515.85 865.979 1583.08 878.471 1613.91 782.862 C 1622.49 780.231 1627.77 777.651 1635.26 772.914 C 1639.06 768.945 1644.08 763.398 1648.17 759.997 z"/>
<path transform="translate(0,0)" fill="rgb(1,4,20)" d="M 1366.93 867.712 C 1374.32 869.065 1418.58 861.801 1427.7 860.234 C 1420.16 867.167 1411.4 873.739 1404.72 880.018 C 1386.8 882.369 1355.62 882.26 1343.27 896.574 C 1337.67 903.074 1339.43 910.283 1346.86 914.504 C 1376.58 930.166 1420.04 916.63 1452.36 920.024 C 1465.16 921.368 1509.78 924.228 1515.66 933.575 C 1512.32 935.43 1507.7 936.38 1503.91 937.385 C 1499.2 935.778 1483.93 935.335 1478.23 935.2 C 1461.15 934.854 1444.07 935.18 1427.01 936.179 C 1399.73 937.686 1361.47 944.592 1336.84 930.192 C 1329.69 925.618 1323.67 917.902 1322.63 909.33 C 1318.77 877.507 1342.95 871.268 1366.93 867.712 z"/>
<path transform="translate(0,0)" fill="rgb(25,38,52)" d="M 1695.68 790.618 C 1697.56 792.781 1706.3 800.634 1709.08 800.008 C 1705.7 806.395 1702.3 813.01 1698.76 819.284 C 1696.91 822.117 1692.83 828.048 1691.37 830.783 C 1673.41 856.909 1654.38 874.613 1624.56 886.449 C 1620.27 888.15 1609.1 892.932 1604.77 892.612 C 1644.07 868.658 1671.18 844.829 1689.66 802.326 L 1695.68 790.618 z"/>
<path transform="translate(0,0)" fill="rgb(254,254,254)" d="M 1648.17 759.997 C 1664.96 768.521 1681.92 777.459 1695.68 790.618 L 1689.66 802.326 C 1679.55 794.795 1669.26 789.612 1658.03 784.246 C 1653.55 782.103 1637.48 775.713 1635.26 772.914 C 1639.06 768.945 1644.08 763.398 1648.17 759.997 z"/>
<path transform="translate(0,0)" fill="rgb(1,4,20)" d="M 1651.52 807.189 L 1652.35 807.092 C 1675.45 804.513 1666.16 825.779 1651.33 831.947 C 1645.68 834.298 1631.63 845.452 1626.27 849.721 C 1622.83 851.58 1621.15 852.186 1617.41 852.056 C 1607.49 846.283 1621.57 826.29 1627.7 820.768 C 1635.81 813.467 1641.46 810.737 1651.52 807.189 z"/>
<path transform="translate(0,0)" fill="url(#Gradient3)" d="M 1417.13 677.533 C 1441.55 684.03 1461.29 694.126 1481.06 709.98 C 1520.22 741.393 1554.7 795.55 1613.91 782.862 C 1583.08 878.471 1515.85 865.979 1430.78 877.152 C 1422.37 878.257 1413.06 879.504 1404.72 880.018 C 1411.4 873.739 1420.16 867.167 1427.7 860.234 C 1440.27 852.919 1455.62 831.52 1462.22 818.238 C 1433.46 840.946 1409.52 846.604 1373.74 844.16 C 1345.73 837.461 1325.3 829.511 1308.78 804.103 C 1296.59 785.365 1292.44 764.131 1297.26 742.17 C 1302.89 741.276 1309.05 740.166 1314.66 739.454 C 1312.64 752.41 1310.47 761.543 1313.09 774.591 C 1323.61 827.08 1393.7 849.576 1434.73 817.761 C 1459.2 798.778 1458.23 792.191 1492.49 792.057 C 1489.48 786.83 1479.44 768.7 1478.41 763.122 C 1480.45 747.256 1457.15 702.901 1441.87 693.487 C 1433.95 688.608 1423.92 683.703 1417.13 677.533 z"/>
<path transform="translate(0,0)" fill="rgb(124,54,38)" d="M 1354.55 677.09 C 1378.26 671.519 1393.39 670.942 1417.13 677.533 C 1423.92 683.703 1433.95 688.608 1441.87 693.487 C 1457.15 702.901 1480.45 747.256 1478.41 763.122 C 1476.01 759.028 1472.88 752.583 1470.5 748.1 C 1457.36 723.374 1434.91 703.365 1407.67 695.541 C 1369.91 684.692 1338.19 704.995 1306.18 722.74 C 1306.13 710.323 1344.89 684.166 1354.55 677.09 z"/>
<path transform="translate(0,0)" fill="url(#Gradient2)" d="M 1334.61 738.322 C 1339.81 738.201 1342.42 737.825 1347.45 739.297 C 1351.53 743.464 1349.34 759.629 1350.22 766.47 C 1353.27 790.315 1378.85 802.994 1400.84 796.111 C 1414.71 791.768 1420.71 783.464 1427.33 771.406 C 1443.72 773.264 1444.04 774.446 1437.1 789.787 C 1400.55 851.385 1303.69 798.086 1334.61 738.322 z"/>
<path transform="translate(0,0)" fill="rgb(254,254,254)" d="M 1400.48 724.531 C 1408.99 722.572 1417.46 727.891 1419.4 736.4 C 1421.34 744.91 1415.99 753.374 1407.48 755.286 C 1399 757.192 1390.57 751.875 1388.65 743.398 C 1386.72 734.922 1392.01 726.483 1400.48 724.531 z"/>
<path transform="translate(0,0)" fill="rgb(56,69,74)" d="M 1065.92 632.311 C 1055.37 624.759 1038.66 616.235 1027.1 608.852 C 1002.95 593.427 974.863 573.717 954.42 553.732 C 970.048 561.731 983.524 565.726 1000.38 569.64 C 1046.04 586.427 1094.42 594.624 1143.07 593.819 C 1184.51 593.161 1234.87 578.08 1278.63 574.185 C 1378.74 565.273 1543.03 593.036 1595.28 689.32 C 1597.45 688.726 1597.06 688.914 1599.09 687.893 C 1601.51 683.444 1601.63 677.437 1603.23 671.445 C 1596.79 663.212 1591.44 656.222 1585.75 647.342 C 1608.84 663.071 1639.54 689.23 1644.1 717.604 C 1644.85 722.257 1647.41 735.4 1644.16 738.883 C 1642.58 740.571 1640.2 741.113 1638.18 742.45 C 1636.79 745.826 1624.62 754.968 1621.17 756.894 C 1569.04 785.944 1527.57 715.926 1492.42 689.883 C 1466.1 670.381 1434.61 655.207 1403.48 650.255 C 1335.1 639.382 1285.03 684.382 1224.16 703.283 C 1169.47 720.267 1111.66 717.628 1056.68 704.458 C 1052.89 702.2 1020.03 693.585 1013.31 691.404 C 996.375 685.843 979.538 679.988 962.807 673.842 C 952.557 670.039 939.213 664.523 929.036 661.66 C 924.798 659.165 920.465 656.726 916.193 654.281 C 957.447 660.188 990.851 662.224 1032.25 664.063 C 977.606 644.579 939.15 614.731 896.668 576.52 C 955.549 604.75 1002.21 619.496 1065.92 632.311 z"/>
<path transform="translate(0,0)" fill="rgb(254,254,254)" d="M 1000.38 569.64 C 1046.04 586.427 1094.42 594.624 1143.07 593.819 C 1184.51 593.161 1234.87 578.08 1278.63 574.185 C 1378.74 565.273 1543.03 593.036 1595.28 689.32 C 1601.3 702.652 1605.6 713.28 1609.84 727.16 C 1604.37 719.588 1599.04 708.807 1593.63 701.624 C 1584.81 689.927 1568.51 674.813 1556.78 665.822 C 1482.54 608.908 1369.98 586.98 1278.11 596.598 C 1243.7 600.2 1208.52 609.984 1175.27 613.738 C 1124.31 619.493 1070.28 608.667 1025.22 584.532 C 1018.47 580.912 1005.67 575.269 1000.13 570.911 L 1000.38 569.64 z"/>
<path transform="translate(0,0)" fill="rgb(254,254,254)" d="M 1585.75 647.342 C 1608.84 663.071 1639.54 689.23 1644.1 717.604 C 1644.85 722.257 1647.41 735.4 1644.16 738.883 C 1642.58 740.571 1640.2 741.113 1638.18 742.45 C 1636.83 738.265 1635.77 730.583 1634.05 724.928 C 1627.75 704.274 1617.04 687.871 1603.23 671.445 C 1596.79 663.212 1591.44 656.222 1585.75 647.342 z"/>
<path transform="translate(0,0)" fill="url(#Gradient1)" d="M 1709.08 800.008 C 1785.4 854.903 1815.03 917.861 1795.65 1011.7 C 1795.35 1017.14 1790.88 1030.06 1789 1035.35 C 1784.73 1015.38 1780.67 1002.5 1768.47 985.348 C 1732.95 935.429 1648.47 911.377 1590.15 902.214 C 1594.95 898.831 1599.58 895.365 1604.77 892.612 C 1609.1 892.932 1620.27 888.15 1624.56 886.449 C 1654.38 874.613 1673.41 856.909 1691.37 830.783 C 1692.83 828.048 1696.91 822.117 1698.76 819.284 C 1702.3 813.01 1705.7 806.395 1709.08 800.008 z"/>
<path transform="translate(0,0)" fill="rgb(254,254,254)" d="M 1709.08 800.008 C 1785.4 854.903 1815.03 917.861 1795.65 1011.7 L 1794.52 1010.94 C 1795.79 995.628 1795.5 980.231 1793.65 964.983 C 1787.15 914.356 1761.09 868.286 1721.04 836.64 C 1714.69 830.845 1705.78 824.538 1698.76 819.284 C 1702.3 813.01 1705.7 806.395 1709.08 800.008 z"/>
<path transform="translate(0,0)" fill="rgb(139,151,154)" d="M 1698.76 819.284 C 1705.78 824.538 1714.69 830.845 1721.04 836.64 L 1717.9 837.525 L 1717.13 836.987 C 1701.13 826.057 1698.78 839.626 1691.85 834.744 L 1691.37 830.783 C 1692.83 828.048 1696.91 822.117 1698.76 819.284 z"/>
<path transform="translate(0,0)" fill="rgb(56,69,74)" d="M 1597.81 921.48 C 1648.41 932.978 1710.98 951.277 1747.79 989.283 C 1712.59 985.628 1683.57 977.053 1649.49 967.965 C 1643.29 966.31 1623.09 961.44 1617.99 959.386 C 1616.61 953.45 1601.04 930.082 1597.81 921.48 z"/>
</svg>